ISO-10303-21;
HEADER;
FILE_DESCRIPTION(('ViewDefinition [CoordinationView]'),'2;1');
FILE_NAME('','2026-07-07T16:12:48',(''),(''),'IfcOpenShell 0.8.0','IfcOpenShell 0.8.0','');
FILE_SCHEMA(('IFC2X3'));
ENDSEC;
DATA;
#1=IFCSIUNIT(*,.LENGTHUNIT.,.MILLI.,.METRE.);
#2=IFCSIUNIT(*,.AREAUNIT.,$,.SQUARE_METRE.);
#3=IFCSIUNIT(*,.VOLUMEUNIT.,$,.CUBIC_METRE.);
#4=IFCUNITASSIGNMENT((#1,#2,#3));
#5=IFCCARTESIANPOINT((0.,0.,0.));
#6=IFCDIRECTION((0.,0.,1.));
#7=IFCDIRECTION((1.,0.,0.));
#8=IFCAXIS2PLACEMENT3D(#5,#6,#7);
#9=IFCGEOMETRICREPRESENTATIONCONTEXT($,'Model',3,1.E-05,#8,$);
#10=IFCGEOMETRICREPRESENTATIONSUBCONTEXT('Body','Model',*,*,*,*,#9,$,.MODEL_VIEW.,$);
#11=IFCPROJECT('1cW2k0Jo592eOmdWFsqF_j',$,'ifc_example \X2\2014\X0\ 3-story steel frame','Synthetic reproduction bundle for Paper 1 \X2\00A7\X0\4 IFC application example',$,$,$,(#9),#4);
#12=IFCSITE('0FyG9K4wj2ZvEHUNdICOvV',$,'Site',$,$,$,$,$,$,$,$,$,$,$);
#13=IFCRELAGGREGATES('1ljoHapVH2ovF9pNhvhhhi',$,$,$,#11,(#12));
#14=IFCBUILDING('1FS6PHt_5EQBbjtgobeEPf',$,'Building',$,$,$,$,$,$,$,$,$);
#15=IFCRELAGGREGATES('3zBJbHT11DJeV1zM2M02CV',$,$,$,#12,(#14));
#16=IFCBUILDINGSTOREY('06bN5QNuz9fh7YfRaZLvgv',$,'1F',$,$,$,$,$,$,0.);
#17=IFCBUILDINGSTOREY('2v5SrN0fnDtOIQ9trSXIBy',$,'2F',$,$,$,$,$,$,3000.);
#18=IFCBUILDINGSTOREY('00OC$Cf51BAfcPdiHnprai',$,'3F',$,$,$,$,$,$,6000.);
#19=IFCBUILDINGSTOREY('1Qwi_UNefEEA0QaoO39cfC',$,'RF',$,$,$,$,$,$,9000.);
#20=IFCRELAGGREGATES('1X8p3CHCj8GQpbZxsLva98',$,$,$,#14,(#16,#17,#18,#19));
#21=IFCMATERIAL('SS275');
#22=IFCCARTESIANPOINT((0.,0.));
#23=IFCDIRECTION((1.,0.));
#24=IFCAXIS2PLACEMENT2D(#22,#23);
#25=IFCISHAPEPROFILEDEF(.AREA.,'H-300x300',#24,300.,300.,10.,15.,$);
#26=IFCCARTESIANPOINT((0.,0.));
#27=IFCDIRECTION((1.,0.));
#28=IFCAXIS2PLACEMENT2D(#26,#27);
#29=IFCISHAPEPROFILEDEF(.AREA.,'H-400x200',#28,200.,400.,8.,13.,$);
#30=IFCCARTESIANPOINT((0.,0.,0.));
#31=IFCDIRECTION((0.,0.,1.));
#32=IFCDIRECTION((1.,0.,0.));
#33=IFCAXIS2PLACEMENT3D(#30,#31,#32);
#34=IFCLOCALPLACEMENT($,#33);
#35=IFCCARTESIANPOINT((0.,0.,0.));
#36=IFCAXIS2PLACEMENT3D(#35,$,$);
#37=IFCDIRECTION((0.,0.,1.));
#38=IFCEXTRUDEDAREASOLID(#25,#36,#37,3000.);
#39=IFCSHAPEREPRESENTATION(#10,'Body','SweptSolid',(#38));
#40=IFCPRODUCTDEFINITIONSHAPE($,$,(#39));
#41=IFCCOLUMN('3kdefoMvf3O96p7BoF1ZhO',$,'column_1',$,$,#34,#40,'1');
#42=IFCCARTESIANPOINT((4000.,0.,0.));
#43=IFCDIRECTION((0.,0.,1.));
#44=IFCDIRECTION((1.,0.,0.));
#45=IFCAXIS2PLACEMENT3D(#42,#43,#44);
#46=IFCLOCALPLACEMENT($,#45);
#47=IFCCARTESIANPOINT((0.,0.,0.));
#48=IFCAXIS2PLACEMENT3D(#47,$,$);
#49=IFCDIRECTION((0.,0.,1.));
#50=IFCEXTRUDEDAREASOLID(#25,#48,#49,3000.);
#51=IFCSHAPEREPRESENTATION(#10,'Body','SweptSolid',(#50));
#52=IFCPRODUCTDEFINITIONSHAPE($,$,(#51));
#53=IFCCOLUMN('0QIejoKJn0nAUrdPMHfk4q',$,'column_2',$,$,#46,#52,'2');
#54=IFCCARTESIANPOINT((8000.,0.,0.));
#55=IFCDIRECTION((0.,0.,1.));
#56=IFCDIRECTION((1.,0.,0.));
#57=IFCAXIS2PLACEMENT3D(#54,#55,#56);
#58=IFCLOCALPLACEMENT($,#57);
#59=IFCCARTESIANPOINT((0.,0.,0.));
#60=IFCAXIS2PLACEMENT3D(#59,$,$);
#61=IFCDIRECTION((0.,0.,1.));
#62=IFCEXTRUDEDAREASOLID(#25,#60,#61,3000.);
#63=IFCSHAPEREPRESENTATION(#10,'Body','SweptSolid',(#62));
#64=IFCPRODUCTDEFINITIONSHAPE($,$,(#63));
#65=IFCCOLUMN('3WhGozE_z6NgxR02VTm3vb',$,'column_3',$,$,#58,#64,'3');
#66=IFCCARTESIANPOINT((12000.,0.,0.));
#67=IFCDIRECTION((0.,0.,1.));
#68=IFCDIRECTION((1.,0.,0.));
#69=IFCAXIS2PLACEMENT3D(#66,#67,#68);
#70=IFCLOCALPLACEMENT($,#69);
#71=IFCCARTESIANPOINT((0.,0.,0.));
#72=IFCAXIS2PLACEMENT3D(#71,$,$);
#73=IFCDIRECTION((0.,0.,1.));
#74=IFCEXTRUDEDAREASOLID(#25,#72,#73,3000.);
#75=IFCSHAPEREPRESENTATION(#10,'Body','SweptSolid',(#74));
#76=IFCPRODUCTDEFINITIONSHAPE($,$,(#75));
#77=IFCCOLUMN('2bvWYsVhr0JOuHIjK$g7_a',$,'column_4',$,$,#70,#76,'4');
#78=IFCCARTESIANPOINT((0.,5000.,0.));
#79=IFCDIRECTION((0.,0.,1.));
#80=IFCDIRECTION((1.,0.,0.));
#81=IFCAXIS2PLACEMENT3D(#78,#79,#80);
#82=IFCLOCALPLACEMENT($,#81);
#83=IFCCARTESIANPOINT((0.,0.,0.));
#84=IFCAXIS2PLACEMENT3D(#83,$,$);
#85=IFCDIRECTION((0.,0.,1.));
#86=IFCEXTRUDEDAREASOLID(#25,#84,#85,3000.);
#87=IFCSHAPEREPRESENTATION(#10,'Body','SweptSolid',(#86));
#88=IFCPRODUCTDEFINITIONSHAPE($,$,(#87));
#89=IFCCOLUMN('1duPvlSqnFavM5v1gDgyga',$,'column_5',$,$,#82,#88,'5');
#90=IFCCARTESIANPOINT((4000.,5000.,0.));
#91=IFCDIRECTION((0.,0.,1.));
#92=IFCDIRECTION((1.,0.,0.));
#93=IFCAXIS2PLACEMENT3D(#90,#91,#92);
#94=IFCLOCALPLACEMENT($,#93);
#95=IFCCARTESIANPOINT((0.,0.,0.));
#96=IFCAXIS2PLACEMENT3D(#95,$,$);
#97=IFCDIRECTION((0.,0.,1.));
#98=IFCEXTRUDEDAREASOLID(#25,#96,#97,3000.);
#99=IFCSHAPEREPRESENTATION(#10,'Body','SweptSolid',(#98));
#100=IFCPRODUCTDEFINITIONSHAPE($,$,(#99));
#101=IFCCOLUMN('3M5ho44I5C_O_hMHohf4Z4',$,'column_6',$,$,#94,#100,'6');
#102=IFCCARTESIANPOINT((8000.,5000.,0.));
#103=IFCDIRECTION((0.,0.,1.));
#104=IFCDIRECTION((1.,0.,0.));
#105=IFCAXIS2PLACEMENT3D(#102,#103,#104);
#106=IFCLOCALPLACEMENT($,#105);
#107=IFCCARTESIANPOINT((0.,0.,0.));
#108=IFCAXIS2PLACEMENT3D(#107,$,$);
#109=IFCDIRECTION((0.,0.,1.));
#110=IFCEXTRUDEDAREASOLID(#25,#108,#109,3000.);
#111=IFCSHAPEREPRESENTATION(#10,'Body','SweptSolid',(#110));
#112=IFCPRODUCTDEFINITIONSHAPE($,$,(#111));
#113=IFCCOLUMN('1il_bTQYL0_f5ZGpxEHwMJ',$,'column_7',$,$,#106,#112,'7');
#114=IFCCARTESIANPOINT((12000.,5000.,0.));
#115=IFCDIRECTION((0.,0.,1.));
#116=IFCDIRECTION((1.,0.,0.));
#117=IFCAXIS2PLACEMENT3D(#114,#115,#116);
#118=IFCLOCALPLACEMENT($,#117);
#119=IFCCARTESIANPOINT((0.,0.,0.));
#120=IFCAXIS2PLACEMENT3D(#119,$,$);
#121=IFCDIRECTION((0.,0.,1.));
#122=IFCEXTRUDEDAREASOLID(#25,#120,#121,3000.);
#123=IFCSHAPEREPRESENTATION(#10,'Body','SweptSolid',(#122));
#124=IFCPRODUCTDEFINITIONSHAPE($,$,(#123));
#125=IFCCOLUMN('3yGzkSyaH7yfOzETpzeCbl',$,'column_8',$,$,#118,#124,'8');
#126=IFCCARTESIANPOINT((0.,10000.,0.));
#127=IFCDIRECTION((0.,0.,1.));
#128=IFCDIRECTION((1.,0.,0.));
#129=IFCAXIS2PLACEMENT3D(#126,#127,#128);
#130=IFCLOCALPLACEMENT($,#129);
#131=IFCCARTESIANPOINT((0.,0.,0.));
#132=IFCAXIS2PLACEMENT3D(#131,$,$);
#133=IFCDIRECTION((0.,0.,1.));
#134=IFCEXTRUDEDAREASOLID(#25,#132,#133,3000.);
#135=IFCSHAPEREPRESENTATION(#10,'Body','SweptSolid',(#134));
#136=IFCPRODUCTDEFINITIONSHAPE($,$,(#135));
#137=IFCCOLUMN('3$w4$a2812e9q1hmWruWOg',$,'column_9',$,$,#130,#136,'9');
#138=IFCCARTESIANPOINT((4000.,10000.,0.));
#139=IFCDIRECTION((0.,0.,1.));
#140=IFCDIRECTION((1.,0.,0.));
#141=IFCAXIS2PLACEMENT3D(#138,#139,#140);
#142=IFCLOCALPLACEMENT($,#141);
#143=IFCCARTESIANPOINT((0.,0.,0.));
#144=IFCAXIS2PLACEMENT3D(#143,$,$);
#145=IFCDIRECTION((0.,0.,1.));
#146=IFCEXTRUDEDAREASOLID(#25,#144,#145,3000.);
#147=IFCSHAPEREPRESENTATION(#10,'Body','SweptSolid',(#146));
#148=IFCPRODUCTDEFINITIONSHAPE($,$,(#147));
#149=IFCCOLUMN('1u4Lt8lobDHwiKzjLrXZ89',$,'column_10',$,$,#142,#148,'10');
#150=IFCCARTESIANPOINT((8000.,10000.,0.));
#151=IFCDIRECTION((0.,0.,1.));
#152=IFCDIRECTION((1.,0.,0.));
#153=IFCAXIS2PLACEMENT3D(#150,#151,#152);
#154=IFCLOCALPLACEMENT($,#153);
#155=IFCCARTESIANPOINT((0.,0.,0.));
#156=IFCAXIS2PLACEMENT3D(#155,$,$);
#157=IFCDIRECTION((0.,0.,1.));
#158=IFCEXTRUDEDAREASOLID(#25,#156,#157,3000.);
#159=IFCSHAPEREPRESENTATION(#10,'Body','SweptSolid',(#158));
#160=IFCPRODUCTDEFINITIONSHAPE($,$,(#159));
#161=IFCCOLUMN('34atP9Bj1Biv4ZhhwzlDPe',$,'column_11',$,$,#154,#160,'11');
#162=IFCCARTESIANPOINT((12000.,10000.,0.));
#163=IFCDIRECTION((0.,0.,1.));
#164=IFCDIRECTION((1.,0.,0.));
#165=IFCAXIS2PLACEMENT3D(#162,#163,#164);
#166=IFCLOCALPLACEMENT($,#165);
#167=IFCCARTESIANPOINT((0.,0.,0.));
#168=IFCAXIS2PLACEMENT3D(#167,$,$);
#169=IFCDIRECTION((0.,0.,1.));
#170=IFCEXTRUDEDAREASOLID(#25,#168,#169,3000.);
#171=IFCSHAPEREPRESENTATION(#10,'Body','SweptSolid',(#170));
#172=IFCPRODUCTDEFINITIONSHAPE($,$,(#171));
#173=IFCCOLUMN('3UMaC_uvz9ceEH13vQL6FS',$,'column_12',$,$,#166,#172,'12');
#174=IFCCARTESIANPOINT((0.,0.,3000.));
#175=IFCDIRECTION((0.,0.,1.));
#176=IFCDIRECTION((1.,0.,0.));
#177=IFCAXIS2PLACEMENT3D(#174,#175,#176);
#178=IFCLOCALPLACEMENT($,#177);
#179=IFCCARTESIANPOINT((0.,0.,0.));
#180=IFCAXIS2PLACEMENT3D(#179,$,$);
#181=IFCDIRECTION((0.,0.,1.));
#182=IFCEXTRUDEDAREASOLID(#25,#180,#181,3000.);
#183=IFCSHAPEREPRESENTATION(#10,'Body','SweptSolid',(#182));
#184=IFCPRODUCTDEFINITIONSHAPE($,$,(#183));
#185=IFCCOLUMN('0XhL0PXmvF1R1YotjtDt04',$,'column_13',$,$,#178,#184,'13');
#186=IFCCARTESIANPOINT((4000.,0.,3000.));
#187=IFCDIRECTION((0.,0.,1.));
#188=IFCDIRECTION((1.,0.,0.));
#189=IFCAXIS2PLACEMENT3D(#186,#187,#188);
#190=IFCLOCALPLACEMENT($,#189);
#191=IFCCARTESIANPOINT((0.,0.,0.));
#192=IFCAXIS2PLACEMENT3D(#191,$,$);
#193=IFCDIRECTION((0.,0.,1.));
#194=IFCEXTRUDEDAREASOLID(#25,#192,#193,3000.);
#195=IFCSHAPEREPRESENTATION(#10,'Body','SweptSolid',(#194));
#196=IFCPRODUCTDEFINITIONSHAPE($,$,(#195));
#197=IFCCOLUMN('3DLMe_ai1Eiw2JooY0vO$r',$,'column_14',$,$,#190,#196,'14');
#198=IFCCARTESIANPOINT((8000.,0.,3000.));
#199=IFCDIRECTION((0.,0.,1.));
#200=IFCDIRECTION((1.,0.,0.));
#201=IFCAXIS2PLACEMENT3D(#198,#199,#200);
#202=IFCLOCALPLACEMENT($,#201);
#203=IFCCARTESIANPOINT((0.,0.,0.));
#204=IFCAXIS2PLACEMENT3D(#203,$,$);
#205=IFCDIRECTION((0.,0.,1.));
#206=IFCEXTRUDEDAREASOLID(#25,#204,#205,3000.);
#207=IFCSHAPEREPRESENTATION(#10,'Body','SweptSolid',(#206));
#208=IFCPRODUCTDEFINITIONSHAPE($,$,(#207));
#209=IFCCOLUMN('1$0c1y0WPC4PzPDXUPjafQ',$,'column_15',$,$,#202,#208,'15');
#210=IFCCARTESIANPOINT((12000.,0.,3000.));
#211=IFCDIRECTION((0.,0.,1.));
#212=IFCDIRECTION((1.,0.,0.));
#213=IFCAXIS2PLACEMENT3D(#210,#211,#212);
#214=IFCLOCALPLACEMENT($,#213);
#215=IFCCARTESIANPOINT((0.,0.,0.));
#216=IFCAXIS2PLACEMENT3D(#215,$,$);
#217=IFCDIRECTION((0.,0.,1.));
#218=IFCEXTRUDEDAREASOLID(#25,#216,#217,3000.);
#219=IFCSHAPEREPRESENTATION(#10,'Body','SweptSolid',(#218));
#220=IFCPRODUCTDEFINITIONSHAPE($,$,(#219));
#221=IFCCOLUMN('1eOr685KT3Rfdu6EirXMso',$,'column_16',$,$,#214,#220,'16');
#222=IFCCARTESIANPOINT((0.,5000.,3000.));
#223=IFCDIRECTION((0.,0.,1.));
#224=IFCDIRECTION((1.,0.,0.));
#225=IFCAXIS2PLACEMENT3D(#222,#223,#224);
#226=IFCLOCALPLACEMENT($,#225);
#227=IFCCARTESIANPOINT((0.,0.,0.));
#228=IFCAXIS2PLACEMENT3D(#227,$,$);
#229=IFCDIRECTION((0.,0.,1.));
#230=IFCEXTRUDEDAREASOLID(#25,#228,#229,3000.);
#231=IFCSHAPEREPRESENTATION(#10,'Body','SweptSolid',(#230));
#232=IFCPRODUCTDEFINITIONSHAPE($,$,(#231));
#233=IFCCOLUMN('0JzpdDqwLFch$k3A6_b6xC',$,'column_17',$,$,#226,#232,'17');
#234=IFCCARTESIANPOINT((4000.,5000.,3000.));
#235=IFCDIRECTION((0.,0.,1.));
#236=IFCDIRECTION((1.,0.,0.));
#237=IFCAXIS2PLACEMENT3D(#234,#235,#236);
#238=IFCLOCALPLACEMENT($,#237);
#239=IFCCARTESIANPOINT((0.,0.,0.));
#240=IFCAXIS2PLACEMENT3D(#239,$,$);
#241=IFCDIRECTION((0.,0.,1.));
#242=IFCEXTRUDEDAREASOLID(#25,#240,#241,3000.);
#243=IFCSHAPEREPRESENTATION(#10,'Body','SweptSolid',(#242));
#244=IFCPRODUCTDEFINITIONSHAPE($,$,(#243));
#245=IFCCOLUMN('0u3MqAcLbECB6bTw8Qyfe3',$,'column_18',$,$,#238,#244,'18');
#246=IFCCARTESIANPOINT((8000.,5000.,3000.));
#247=IFCDIRECTION((0.,0.,1.));
#248=IFCDIRECTION((1.,0.,0.));
#249=IFCAXIS2PLACEMENT3D(#246,#247,#248);
#250=IFCLOCALPLACEMENT($,#249);
#251=IFCCARTESIANPOINT((0.,0.,0.));
#252=IFCAXIS2PLACEMENT3D(#251,$,$);
#253=IFCDIRECTION((0.,0.,1.));
#254=IFCEXTRUDEDAREASOLID(#25,#252,#253,3000.);
#255=IFCSHAPEREPRESENTATION(#10,'Body','SweptSolid',(#254));
#256=IFCPRODUCTDEFINITIONSHAPE($,$,(#255));
#257=IFCCOLUMN('3l3Nfzkt532gruYkoncX8S',$,'column_19',$,$,#250,#256,'19');
#258=IFCCARTESIANPOINT((12000.,5000.,3000.));
#259=IFCDIRECTION((0.,0.,1.));
#260=IFCDIRECTION((1.,0.,0.));
#261=IFCAXIS2PLACEMENT3D(#258,#259,#260);
#262=IFCLOCALPLACEMENT($,#261);
#263=IFCCARTESIANPOINT((0.,0.,0.));
#264=IFCAXIS2PLACEMENT3D(#263,$,$);
#265=IFCDIRECTION((0.,0.,1.));
#266=IFCEXTRUDEDAREASOLID(#25,#264,#265,3000.);
#267=IFCSHAPEREPRESENTATION(#10,'Body','SweptSolid',(#266));
#268=IFCPRODUCTDEFINITIONSHAPE($,$,(#267));
#269=IFCCOLUMN('1Msbfuu1LCIgj0vBPwCcNh',$,'column_20',$,$,#262,#268,'20');
#270=IFCCARTESIANPOINT((0.,10000.,3000.));
#271=IFCDIRECTION((0.,0.,1.));
#272=IFCDIRECTION((1.,0.,0.));
#273=IFCAXIS2PLACEMENT3D(#270,#271,#272);
#274=IFCLOCALPLACEMENT($,#273);
#275=IFCCARTESIANPOINT((0.,0.,0.));
#276=IFCAXIS2PLACEMENT3D(#275,$,$);
#277=IFCDIRECTION((0.,0.,1.));
#278=IFCEXTRUDEDAREASOLID(#25,#276,#277,3000.);
#279=IFCSHAPEREPRESENTATION(#10,'Body','SweptSolid',(#278));
#280=IFCPRODUCTDEFINITIONSHAPE($,$,(#279));
#281=IFCCOLUMN('0EWIpfzt50jPjbWkYRj3Pc',$,'column_21',$,$,#274,#280,'21');
#282=IFCCARTESIANPOINT((4000.,10000.,3000.));
#283=IFCDIRECTION((0.,0.,1.));
#284=IFCDIRECTION((1.,0.,0.));
#285=IFCAXIS2PLACEMENT3D(#282,#283,#284);
#286=IFCLOCALPLACEMENT($,#285);
#287=IFCCARTESIANPOINT((0.,0.,0.));
#288=IFCAXIS2PLACEMENT3D(#287,$,$);
#289=IFCDIRECTION((0.,0.,1.));
#290=IFCEXTRUDEDAREASOLID(#25,#288,#289,3000.);
#291=IFCSHAPEREPRESENTATION(#10,'Body','SweptSolid',(#290));
#292=IFCPRODUCTDEFINITIONSHAPE($,$,(#291));
#293=IFCCOLUMN('3qRgZRu5j7rhPYKWXD2aO0',$,'column_22',$,$,#286,#292,'22');
#294=IFCCARTESIANPOINT((8000.,10000.,3000.));
#295=IFCDIRECTION((0.,0.,1.));
#296=IFCDIRECTION((1.,0.,0.));
#297=IFCAXIS2PLACEMENT3D(#294,#295,#296);
#298=IFCLOCALPLACEMENT($,#297);
#299=IFCCARTESIANPOINT((0.,0.,0.));
#300=IFCAXIS2PLACEMENT3D(#299,$,$);
#301=IFCDIRECTION((0.,0.,1.));
#302=IFCEXTRUDEDAREASOLID(#25,#300,#301,3000.);
#303=IFCSHAPEREPRESENTATION(#10,'Body','SweptSolid',(#302));
#304=IFCPRODUCTDEFINITIONSHAPE($,$,(#303));
#305=IFCCOLUMN('2GkWHrXF94P9bnEVd5znqV',$,'column_23',$,$,#298,#304,'23');
#306=IFCCARTESIANPOINT((12000.,10000.,3000.));
#307=IFCDIRECTION((0.,0.,1.));
#308=IFCDIRECTION((1.,0.,0.));
#309=IFCAXIS2PLACEMENT3D(#306,#307,#308);
#310=IFCLOCALPLACEMENT($,#309);
#311=IFCCARTESIANPOINT((0.,0.,0.));
#312=IFCAXIS2PLACEMENT3D(#311,$,$);
#313=IFCDIRECTION((0.,0.,1.));
#314=IFCEXTRUDEDAREASOLID(#25,#312,#313,3000.);
#315=IFCSHAPEREPRESENTATION(#10,'Body','SweptSolid',(#314));
#316=IFCPRODUCTDEFINITIONSHAPE($,$,(#315));
#317=IFCCOLUMN('06o5JBp3bEiA7HgPqIgdGk',$,'column_24',$,$,#310,#316,'24');
#318=IFCCARTESIANPOINT((0.,0.,6000.));
#319=IFCDIRECTION((0.,0.,1.));
#320=IFCDIRECTION((1.,0.,0.));
#321=IFCAXIS2PLACEMENT3D(#318,#319,#320);
#322=IFCLOCALPLACEMENT($,#321);
#323=IFCCARTESIANPOINT((0.,0.,0.));
#324=IFCAXIS2PLACEMENT3D(#323,$,$);
#325=IFCDIRECTION((0.,0.,1.));
#326=IFCEXTRUDEDAREASOLID(#25,#324,#325,3000.);
#327=IFCSHAPEREPRESENTATION(#10,'Body','SweptSolid',(#326));
#328=IFCPRODUCTDEFINITIONSHAPE($,$,(#327));
#329=IFCCOLUMN('2L$T8Ekkv8OwXCS5xO7F1k',$,'column_25',$,$,#322,#328,'25');
#330=IFCCARTESIANPOINT((4000.,0.,6000.));
#331=IFCDIRECTION((0.,0.,1.));
#332=IFCDIRECTION((1.,0.,0.));
#333=IFCAXIS2PLACEMENT3D(#330,#331,#332);
#334=IFCLOCALPLACEMENT($,#333);
#335=IFCCARTESIANPOINT((0.,0.,0.));
#336=IFCAXIS2PLACEMENT3D(#335,$,$);
#337=IFCDIRECTION((0.,0.,1.));
#338=IFCEXTRUDEDAREASOLID(#25,#336,#337,3000.);
#339=IFCSHAPEREPRESENTATION(#10,'Body','SweptSolid',(#338));
#340=IFCPRODUCTDEFINITIONSHAPE($,$,(#339));
#341=IFCCOLUMN('2ac8Jye6jDzRQVMYOt2gtP',$,'column_26',$,$,#334,#340,'26');
#342=IFCCARTESIANPOINT((8000.,0.,6000.));
#343=IFCDIRECTION((0.,0.,1.));
#344=IFCDIRECTION((1.,0.,0.));
#345=IFCAXIS2PLACEMENT3D(#342,#343,#344);
#346=IFCLOCALPLACEMENT($,#345);
#347=IFCCARTESIANPOINT((0.,0.,0.));
#348=IFCAXIS2PLACEMENT3D(#347,$,$);
#349=IFCDIRECTION((0.,0.,1.));
#350=IFCEXTRUDEDAREASOLID(#25,#348,#349,3000.);
#351=IFCSHAPEREPRESENTATION(#10,'Body','SweptSolid',(#350));
#352=IFCPRODUCTDEFINITIONSHAPE($,$,(#351));
#353=IFCCOLUMN('1NNdmlBVT3oQ9zOfMBtKjr',$,'column_27',$,$,#346,#352,'27');
#354=IFCCARTESIANPOINT((12000.,0.,6000.));
#355=IFCDIRECTION((0.,0.,1.));
#356=IFCDIRECTION((1.,0.,0.));
#357=IFCAXIS2PLACEMENT3D(#354,#355,#356);
#358=IFCLOCALPLACEMENT($,#357);
#359=IFCCARTESIANPOINT((0.,0.,0.));
#360=IFCAXIS2PLACEMENT3D(#359,$,$);
#361=IFCDIRECTION((0.,0.,1.));
#362=IFCEXTRUDEDAREASOLID(#25,#360,#361,3000.);
#363=IFCSHAPEREPRESENTATION(#10,'Body','SweptSolid',(#362));
#364=IFCPRODUCTDEFINITIONSHAPE($,$,(#363));
#365=IFCCOLUMN('3hw_zsZnz2Tg_1LbS_8XgW',$,'column_28',$,$,#358,#364,'28');
#366=IFCCARTESIANPOINT((0.,5000.,6000.));
#367=IFCDIRECTION((0.,0.,1.));
#368=IFCDIRECTION((1.,0.,0.));
#369=IFCAXIS2PLACEMENT3D(#366,#367,#368);
#370=IFCLOCALPLACEMENT($,#369);
#371=IFCCARTESIANPOINT((0.,0.,0.));
#372=IFCAXIS2PLACEMENT3D(#371,$,$);
#373=IFCDIRECTION((0.,0.,1.));
#374=IFCEXTRUDEDAREASOLID(#25,#372,#373,3000.);
#375=IFCSHAPEREPRESENTATION(#10,'Body','SweptSolid',(#374));
#376=IFCPRODUCTDEFINITIONSHAPE($,$,(#375));
#377=IFCCOLUMN('0KKVdSWQv8Z8JtrJaV1Aa1',$,'column_29',$,$,#370,#376,'29');
#378=IFCCARTESIANPOINT((4000.,5000.,6000.));
#379=IFCDIRECTION((0.,0.,1.));
#380=IFCDIRECTION((1.,0.,0.));
#381=IFCAXIS2PLACEMENT3D(#378,#379,#380);
#382=IFCLOCALPLACEMENT($,#381);
#383=IFCCARTESIANPOINT((0.,0.,0.));
#384=IFCAXIS2PLACEMENT3D(#383,$,$);
#385=IFCDIRECTION((0.,0.,1.));
#386=IFCEXTRUDEDAREASOLID(#25,#384,#385,3000.);
#387=IFCSHAPEREPRESENTATION(#10,'Body','SweptSolid',(#386));
#388=IFCPRODUCTDEFINITIONSHAPE($,$,(#387));
#389=IFCCOLUMN('2_Y8GMo8T3afO7ztdtGobU',$,'column_30',$,$,#382,#388,'30');
#390=IFCCARTESIANPOINT((8000.,5000.,6000.));
#391=IFCDIRECTION((0.,0.,1.));
#392=IFCDIRECTION((1.,0.,0.));
#393=IFCAXIS2PLACEMENT3D(#390,#391,#392);
#394=IFCLOCALPLACEMENT($,#393);
#395=IFCCARTESIANPOINT((0.,0.,0.));
#396=IFCAXIS2PLACEMENT3D(#395,$,$);
#397=IFCDIRECTION((0.,0.,1.));
#398=IFCEXTRUDEDAREASOLID(#25,#396,#397,3000.);
#399=IFCSHAPEREPRESENTATION(#10,'Body','SweptSolid',(#398));
#400=IFCPRODUCTDEFINITIONSHAPE($,$,(#399));
#401=IFCCOLUMN('1iMRbAck97veOcYIZeba7F',$,'column_31',$,$,#394,#400,'31');
#402=IFCCARTESIANPOINT((12000.,5000.,6000.));
#403=IFCDIRECTION((0.,0.,1.));
#404=IFCDIRECTION((1.,0.,0.));
#405=IFCAXIS2PLACEMENT3D(#402,#403,#404);
#406=IFCLOCALPLACEMENT($,#405);
#407=IFCCARTESIANPOINT((0.,0.,0.));
#408=IFCAXIS2PLACEMENT3D(#407,$,$);
#409=IFCDIRECTION((0.,0.,1.));
#410=IFCEXTRUDEDAREASOLID(#25,#408,#409,3000.);
#411=IFCSHAPEREPRESENTATION(#10,'Body','SweptSolid',(#410));
#412=IFCPRODUCTDEFINITIONSHAPE($,$,(#411));
#413=IFCCOLUMN('3qLur8htj0MgkkP9YZnnT5',$,'column_32',$,$,#406,#412,'32');
#414=IFCCARTESIANPOINT((0.,10000.,6000.));
#415=IFCDIRECTION((0.,0.,1.));
#416=IFCDIRECTION((1.,0.,0.));
#417=IFCAXIS2PLACEMENT3D(#414,#415,#416);
#418=IFCLOCALPLACEMENT($,#417);
#419=IFCCARTESIANPOINT((0.,0.,0.));
#420=IFCAXIS2PLACEMENT3D(#419,$,$);
#421=IFCDIRECTION((0.,0.,1.));
#422=IFCEXTRUDEDAREASOLID(#25,#420,#421,3000.);
#423=IFCSHAPEREPRESENTATION(#10,'Body','SweptSolid',(#422));
#424=IFCPRODUCTDEFINITIONSHAPE($,$,(#423));
#425=IFCCOLUMN('0yyA6_dFj1ePuowE28vmBw',$,'column_33',$,$,#418,#424,'33');
#426=IFCCARTESIANPOINT((4000.,10000.,6000.));
#427=IFCDIRECTION((0.,0.,1.));
#428=IFCDIRECTION((1.,0.,0.));
#429=IFCAXIS2PLACEMENT3D(#426,#427,#428);
#430=IFCLOCALPLACEMENT($,#429);
#431=IFCCARTESIANPOINT((0.,0.,0.));
#432=IFCAXIS2PLACEMENT3D(#431,$,$);
#433=IFCDIRECTION((0.,0.,1.));
#434=IFCEXTRUDEDAREASOLID(#25,#432,#433,3000.);
#435=IFCSHAPEREPRESENTATION(#10,'Body','SweptSolid',(#434));
#436=IFCPRODUCTDEFINITIONSHAPE($,$,(#435));
#437=IFCCOLUMN('0iY_69ufjCLvFwieUlA3yr',$,'column_34',$,$,#430,#436,'34');
#438=IFCCARTESIANPOINT((8000.,10000.,6000.));
#439=IFCDIRECTION((0.,0.,1.));
#440=IFCDIRECTION((1.,0.,0.));
#441=IFCAXIS2PLACEMENT3D(#438,#439,#440);
#442=IFCLOCALPLACEMENT($,#441);
#443=IFCCARTESIANPOINT((0.,0.,0.));
#444=IFCAXIS2PLACEMENT3D(#443,$,$);
#445=IFCDIRECTION((0.,0.,1.));
#446=IFCEXTRUDEDAREASOLID(#25,#444,#445,3000.);
#447=IFCSHAPEREPRESENTATION(#10,'Body','SweptSolid',(#446));
#448=IFCPRODUCTDEFINITIONSHAPE($,$,(#447));
#449=IFCCOLUMN('2GjJwUwPDDGBHm9qNmC_QU',$,'column_35',$,$,#442,#448,'35');
#450=IFCCARTESIANPOINT((12000.,10000.,6000.));
#451=IFCDIRECTION((0.,0.,1.));
#452=IFCDIRECTION((1.,0.,0.));
#453=IFCAXIS2PLACEMENT3D(#450,#451,#452);
#454=IFCLOCALPLACEMENT($,#453);
#455=IFCCARTESIANPOINT((0.,0.,0.));
#456=IFCAXIS2PLACEMENT3D(#455,$,$);
#457=IFCDIRECTION((0.,0.,1.));
#458=IFCEXTRUDEDAREASOLID(#25,#456,#457,3000.);
#459=IFCSHAPEREPRESENTATION(#10,'Body','SweptSolid',(#458));
#460=IFCPRODUCTDEFINITIONSHAPE($,$,(#459));
#461=IFCCOLUMN('0ptFsLcJ92xuw_4FJ1T0b3',$,'column_36',$,$,#454,#460,'36');
#462=IFCCARTESIANPOINT((150.,0.,3000.));
#463=IFCDIRECTION((1.,0.,0.));
#464=IFCDIRECTION((0.,1.,0.));
#465=IFCAXIS2PLACEMENT3D(#462,#463,#464);
#466=IFCLOCALPLACEMENT($,#465);
#467=IFCCARTESIANPOINT((0.,0.,0.));
#468=IFCAXIS2PLACEMENT3D(#467,$,$);
#469=IFCDIRECTION((0.,0.,1.));
#470=IFCEXTRUDEDAREASOLID(#29,#468,#469,3700.);
#471=IFCSHAPEREPRESENTATION(#10,'Body','SweptSolid',(#470));
#472=IFCPRODUCTDEFINITIONSHAPE($,$,(#471));
#473=IFCBEAM('2xQM3ESiDBbhH5Z5Ct_aj6',$,'beam_x_37',$,$,#466,#472,'37');
#474=IFCCARTESIANPOINT((4150.,0.,3000.));
#475=IFCDIRECTION((1.,0.,0.));
#476=IFCDIRECTION((0.,1.,0.));
#477=IFCAXIS2PLACEMENT3D(#474,#475,#476);
#478=IFCLOCALPLACEMENT($,#477);
#479=IFCCARTESIANPOINT((0.,0.,0.));
#480=IFCAXIS2PLACEMENT3D(#479,$,$);
#481=IFCDIRECTION((0.,0.,1.));
#482=IFCEXTRUDEDAREASOLID(#29,#480,#481,3700.);
#483=IFCSHAPEREPRESENTATION(#10,'Body','SweptSolid',(#482));
#484=IFCPRODUCTDEFINITIONSHAPE($,$,(#483));
#485=IFCBEAM('3ntcJrhSL4NxahOIRAojDH',$,'beam_x_38',$,$,#478,#484,'38');
#486=IFCCARTESIANPOINT((8150.,0.,3000.));
#487=IFCDIRECTION((1.,0.,0.));
#488=IFCDIRECTION((0.,1.,0.));
#489=IFCAXIS2PLACEMENT3D(#486,#487,#488);
#490=IFCLOCALPLACEMENT($,#489);
#491=IFCCARTESIANPOINT((0.,0.,0.));
#492=IFCAXIS2PLACEMENT3D(#491,$,$);
#493=IFCDIRECTION((0.,0.,1.));
#494=IFCEXTRUDEDAREASOLID(#29,#492,#493,3700.);
#495=IFCSHAPEREPRESENTATION(#10,'Body','SweptSolid',(#494));
#496=IFCPRODUCTDEFINITIONSHAPE($,$,(#495));
#497=IFCBEAM('225ZLniW51_hvXlLcndotg',$,'beam_x_39',$,$,#490,#496,'39');
#498=IFCCARTESIANPOINT((150.,5000.,3000.));
#499=IFCDIRECTION((1.,0.,0.));
#500=IFCDIRECTION((0.,1.,0.));
#501=IFCAXIS2PLACEMENT3D(#498,#499,#500);
#502=IFCLOCALPLACEMENT($,#501);
#503=IFCCARTESIANPOINT((0.,0.,0.));
#504=IFCAXIS2PLACEMENT3D(#503,$,$);
#505=IFCDIRECTION((0.,0.,1.));
#506=IFCEXTRUDEDAREASOLID(#29,#504,#505,3700.);
#507=IFCSHAPEREPRESENTATION(#10,'Body','SweptSolid',(#506));
#508=IFCPRODUCTDEFINITIONSHAPE($,$,(#507));
#509=IFCBEAM('2SrtkJBRfFQALe3UkhYqZZ',$,'beam_x_40',$,$,#502,#508,'40');
#510=IFCCARTESIANPOINT((4150.,5000.,3000.));
#511=IFCDIRECTION((1.,0.,0.));
#512=IFCDIRECTION((0.,1.,0.));
#513=IFCAXIS2PLACEMENT3D(#510,#511,#512);
#514=IFCLOCALPLACEMENT($,#513);
#515=IFCCARTESIANPOINT((0.,0.,0.));
#516=IFCAXIS2PLACEMENT3D(#515,$,$);
#517=IFCDIRECTION((0.,0.,1.));
#518=IFCEXTRUDEDAREASOLID(#29,#516,#517,3700.);
#519=IFCSHAPEREPRESENTATION(#10,'Body','SweptSolid',(#518));
#520=IFCPRODUCTDEFINITIONSHAPE($,$,(#519));
#521=IFCBEAM('3LyxAzUc14pRTwXbPRagjL',$,'beam_x_41',$,$,#514,#520,'41');
#522=IFCCARTESIANPOINT((8150.,5000.,3000.));
#523=IFCDIRECTION((1.,0.,0.));
#524=IFCDIRECTION((0.,1.,0.));
#525=IFCAXIS2PLACEMENT3D(#522,#523,#524);
#526=IFCLOCALPLACEMENT($,#525);
#527=IFCCARTESIANPOINT((0.,0.,0.));
#528=IFCAXIS2PLACEMENT3D(#527,$,$);
#529=IFCDIRECTION((0.,0.,1.));
#530=IFCEXTRUDEDAREASOLID(#29,#528,#529,3700.);
#531=IFCSHAPEREPRESENTATION(#10,'Body','SweptSolid',(#530));
#532=IFCPRODUCTDEFINITIONSHAPE($,$,(#531));
#533=IFCBEAM('2O48$rO5rBYhS0ZLLufEw2',$,'beam_x_42',$,$,#526,#532,'42');
#534=IFCCARTESIANPOINT((150.,10000.,3000.));
#535=IFCDIRECTION((1.,0.,0.));
#536=IFCDIRECTION((0.,1.,0.));
#537=IFCAXIS2PLACEMENT3D(#534,#535,#536);
#538=IFCLOCALPLACEMENT($,#537);
#539=IFCCARTESIANPOINT((0.,0.,0.));
#540=IFCAXIS2PLACEMENT3D(#539,$,$);
#541=IFCDIRECTION((0.,0.,1.));
#542=IFCEXTRUDEDAREASOLID(#29,#540,#541,3700.);
#543=IFCSHAPEREPRESENTATION(#10,'Body','SweptSolid',(#542));
#544=IFCPRODUCTDEFINITIONSHAPE($,$,(#543));
#545=IFCBEAM('3feP9aRhb5Lwmc_0LBpvWX',$,'beam_x_43',$,$,#538,#544,'43');
#546=IFCCARTESIANPOINT((4150.,10000.,3000.));
#547=IFCDIRECTION((1.,0.,0.));
#548=IFCDIRECTION((0.,1.,0.));
#549=IFCAXIS2PLACEMENT3D(#546,#547,#548);
#550=IFCLOCALPLACEMENT($,#549);
#551=IFCCARTESIANPOINT((0.,0.,0.));
#552=IFCAXIS2PLACEMENT3D(#551,$,$);
#553=IFCDIRECTION((0.,0.,1.));
#554=IFCEXTRUDEDAREASOLID(#29,#552,#553,3700.);
#555=IFCSHAPEREPRESENTATION(#10,'Body','SweptSolid',(#554));
#556=IFCPRODUCTDEFINITIONSHAPE($,$,(#555));
#557=IFCBEAM('1etwgCex1BkvM2Q5SVZ$yy',$,'beam_x_44',$,$,#550,#556,'44');
#558=IFCCARTESIANPOINT((8150.,10000.,3000.));
#559=IFCDIRECTION((1.,0.,0.));
#560=IFCDIRECTION((0.,1.,0.));
#561=IFCAXIS2PLACEMENT3D(#558,#559,#560);
#562=IFCLOCALPLACEMENT($,#561);
#563=IFCCARTESIANPOINT((0.,0.,0.));
#564=IFCAXIS2PLACEMENT3D(#563,$,$);
#565=IFCDIRECTION((0.,0.,1.));
#566=IFCEXTRUDEDAREASOLID(#29,#564,#565,3700.);
#567=IFCSHAPEREPRESENTATION(#10,'Body','SweptSolid',(#566));
#568=IFCPRODUCTDEFINITIONSHAPE($,$,(#567));
#569=IFCBEAM('2oi8WcLI92tRlrhLU$DQMB',$,'beam_x_45',$,$,#562,#568,'45');
#570=IFCCARTESIANPOINT((150.,0.,6000.));
#571=IFCDIRECTION((1.,0.,0.));
#572=IFCDIRECTION((0.,1.,0.));
#573=IFCAXIS2PLACEMENT3D(#570,#571,#572);
#574=IFCLOCALPLACEMENT($,#573);
#575=IFCCARTESIANPOINT((0.,0.,0.));
#576=IFCAXIS2PLACEMENT3D(#575,$,$);
#577=IFCDIRECTION((0.,0.,1.));
#578=IFCEXTRUDEDAREASOLID(#29,#576,#577,3700.);
#579=IFCSHAPEREPRESENTATION(#10,'Body','SweptSolid',(#578));
#580=IFCPRODUCTDEFINITIONSHAPE($,$,(#579));
#581=IFCBEAM('28_EcxzOf5KPqfw2M5GVXK',$,'beam_x_46',$,$,#574,#580,'46');
#582=IFCCARTESIANPOINT((4150.,0.,6000.));
#583=IFCDIRECTION((1.,0.,0.));
#584=IFCDIRECTION((0.,1.,0.));
#585=IFCAXIS2PLACEMENT3D(#582,#583,#584);
#586=IFCLOCALPLACEMENT($,#585);
#587=IFCCARTESIANPOINT((0.,0.,0.));
#588=IFCAXIS2PLACEMENT3D(#587,$,$);
#589=IFCDIRECTION((0.,0.,1.));
#590=IFCEXTRUDEDAREASOLID(#29,#588,#589,3700.);
#591=IFCSHAPEREPRESENTATION(#10,'Body','SweptSolid',(#590));
#592=IFCPRODUCTDEFINITIONSHAPE($,$,(#591));
#593=IFCBEAM('36d8rhrjj3LPtVFwRTuLFK',$,'beam_x_47',$,$,#586,#592,'47');
#594=IFCCARTESIANPOINT((8150.,0.,6000.));
#595=IFCDIRECTION((1.,0.,0.));
#596=IFCDIRECTION((0.,1.,0.));
#597=IFCAXIS2PLACEMENT3D(#594,#595,#596);
#598=IFCLOCALPLACEMENT($,#597);
#599=IFCCARTESIANPOINT((0.,0.,0.));
#600=IFCAXIS2PLACEMENT3D(#599,$,$);
#601=IFCDIRECTION((0.,0.,1.));
#602=IFCEXTRUDEDAREASOLID(#29,#600,#601,3700.);
#603=IFCSHAPEREPRESENTATION(#10,'Body','SweptSolid',(#602));
#604=IFCPRODUCTDEFINITIONSHAPE($,$,(#603));
#605=IFCBEAM('3iuG$3bf9ErhcYk4WqH$Vj',$,'beam_x_48',$,$,#598,#604,'48');
#606=IFCCARTESIANPOINT((150.,5000.,6000.));
#607=IFCDIRECTION((1.,0.,0.));
#608=IFCDIRECTION((0.,1.,0.));
#609=IFCAXIS2PLACEMENT3D(#606,#607,#608);
#610=IFCLOCALPLACEMENT($,#609);
#611=IFCCARTESIANPOINT((0.,0.,0.));
#612=IFCAXIS2PLACEMENT3D(#611,$,$);
#613=IFCDIRECTION((0.,0.,1.));
#614=IFCEXTRUDEDAREASOLID(#29,#612,#613,3700.);
#615=IFCSHAPEREPRESENTATION(#10,'Body','SweptSolid',(#614));
#616=IFCPRODUCTDEFINITIONSHAPE($,$,(#615));
#617=IFCBEAM('0d636pVfr2WBaDZgwJ46t_',$,'beam_x_49',$,$,#610,#616,'49');
#618=IFCCARTESIANPOINT((4150.,5000.,6000.));
#619=IFCDIRECTION((1.,0.,0.));
#620=IFCDIRECTION((0.,1.,0.));
#621=IFCAXIS2PLACEMENT3D(#618,#619,#620);
#622=IFCLOCALPLACEMENT($,#621);
#623=IFCCARTESIANPOINT((0.,0.,0.));
#624=IFCAXIS2PLACEMENT3D(#623,$,$);
#625=IFCDIRECTION((0.,0.,1.));
#626=IFCEXTRUDEDAREASOLID(#29,#624,#625,3700.);
#627=IFCSHAPEREPRESENTATION(#10,'Body','SweptSolid',(#626));
#628=IFCPRODUCTDEFINITIONSHAPE($,$,(#627));
#629=IFCBEAM('2W6AiEU8fCgxzBHsfExehD',$,'beam_x_50',$,$,#622,#628,'50');
#630=IFCCARTESIANPOINT((8150.,5000.,6000.));
#631=IFCDIRECTION((1.,0.,0.));
#632=IFCDIRECTION((0.,1.,0.));
#633=IFCAXIS2PLACEMENT3D(#630,#631,#632);
#634=IFCLOCALPLACEMENT($,#633);
#635=IFCCARTESIANPOINT((0.,0.,0.));
#636=IFCAXIS2PLACEMENT3D(#635,$,$);
#637=IFCDIRECTION((0.,0.,1.));
#638=IFCEXTRUDEDAREASOLID(#29,#636,#637,3700.);
#639=IFCSHAPEREPRESENTATION(#10,'Body','SweptSolid',(#638));
#640=IFCPRODUCTDEFINITIONSHAPE($,$,(#639));
#641=IFCBEAM('3FT_nLy4nDUgaRN2smxuDM',$,'beam_x_51',$,$,#634,#640,'51');
#642=IFCCARTESIANPOINT((150.,10000.,6000.));
#643=IFCDIRECTION((1.,0.,0.));
#644=IFCDIRECTION((0.,1.,0.));
#645=IFCAXIS2PLACEMENT3D(#642,#643,#644);
#646=IFCLOCALPLACEMENT($,#645);
#647=IFCCARTESIANPOINT((0.,0.,0.));
#648=IFCAXIS2PLACEMENT3D(#647,$,$);
#649=IFCDIRECTION((0.,0.,1.));
#650=IFCEXTRUDEDAREASOLID(#29,#648,#649,3700.);
#651=IFCSHAPEREPRESENTATION(#10,'Body','SweptSolid',(#650));
#652=IFCPRODUCTDEFINITIONSHAPE($,$,(#651));
#653=IFCBEAM('0CeKe4v$56hAvlFEYVpHEH',$,'beam_x_52',$,$,#646,#652,'52');
#654=IFCCARTESIANPOINT((4150.,10000.,6000.));
#655=IFCDIRECTION((1.,0.,0.));
#656=IFCDIRECTION((0.,1.,0.));
#657=IFCAXIS2PLACEMENT3D(#654,#655,#656);
#658=IFCLOCALPLACEMENT($,#657);
#659=IFCCARTESIANPOINT((0.,0.,0.));
#660=IFCAXIS2PLACEMENT3D(#659,$,$);
#661=IFCDIRECTION((0.,0.,1.));
#662=IFCEXTRUDEDAREASOLID(#29,#660,#661,3700.);
#663=IFCSHAPEREPRESENTATION(#10,'Body','SweptSolid',(#662));
#664=IFCPRODUCTDEFINITIONSHAPE($,$,(#663));
#665=IFCBEAM('11tosGPU1DS8NDH0cO7199',$,'beam_x_53',$,$,#658,#664,'53');
#666=IFCCARTESIANPOINT((8150.,10000.,6000.));
#667=IFCDIRECTION((1.,0.,0.));
#668=IFCDIRECTION((0.,1.,0.));
#669=IFCAXIS2PLACEMENT3D(#666,#667,#668);
#670=IFCLOCALPLACEMENT($,#669);
#671=IFCCARTESIANPOINT((0.,0.,0.));
#672=IFCAXIS2PLACEMENT3D(#671,$,$);
#673=IFCDIRECTION((0.,0.,1.));
#674=IFCEXTRUDEDAREASOLID(#29,#672,#673,3700.);
#675=IFCSHAPEREPRESENTATION(#10,'Body','SweptSolid',(#674));
#676=IFCPRODUCTDEFINITIONSHAPE($,$,(#675));
#677=IFCBEAM('1tUSdcMELBvu1o3Dra4z5c',$,'beam_x_54',$,$,#670,#676,'54');
#678=IFCCARTESIANPOINT((150.,0.,9000.));
#679=IFCDIRECTION((1.,0.,0.));
#680=IFCDIRECTION((0.,1.,0.));
#681=IFCAXIS2PLACEMENT3D(#678,#679,#680);
#682=IFCLOCALPLACEMENT($,#681);
#683=IFCCARTESIANPOINT((0.,0.,0.));
#684=IFCAXIS2PLACEMENT3D(#683,$,$);
#685=IFCDIRECTION((0.,0.,1.));
#686=IFCEXTRUDEDAREASOLID(#29,#684,#685,3700.);
#687=IFCSHAPEREPRESENTATION(#10,'Body','SweptSolid',(#686));
#688=IFCPRODUCTDEFINITIONSHAPE($,$,(#687));
#689=IFCBEAM('344V90Otr2mwbuwAvj_fyy',$,'beam_x_55',$,$,#682,#688,'55');
#690=IFCCARTESIANPOINT((4150.,0.,9000.));
#691=IFCDIRECTION((1.,0.,0.));
#692=IFCDIRECTION((0.,1.,0.));
#693=IFCAXIS2PLACEMENT3D(#690,#691,#692);
#694=IFCLOCALPLACEMENT($,#693);
#695=IFCCARTESIANPOINT((0.,0.,0.));
#696=IFCAXIS2PLACEMENT3D(#695,$,$);
#697=IFCDIRECTION((0.,0.,1.));
#698=IFCEXTRUDEDAREASOLID(#29,#696,#697,3700.);
#699=IFCSHAPEREPRESENTATION(#10,'Body','SweptSolid',(#698));
#700=IFCPRODUCTDEFINITIONSHAPE($,$,(#699));
#701=IFCBEAM('3WcKXkYu19ggmHo4xWtGmH',$,'beam_x_56',$,$,#694,#700,'56');
#702=IFCCARTESIANPOINT((8150.,0.,9000.));
#703=IFCDIRECTION((1.,0.,0.));
#704=IFCDIRECTION((0.,1.,0.));
#705=IFCAXIS2PLACEMENT3D(#702,#703,#704);
#706=IFCLOCALPLACEMENT($,#705);
#707=IFCCARTESIANPOINT((0.,0.,0.));
#708=IFCAXIS2PLACEMENT3D(#707,$,$);
#709=IFCDIRECTION((0.,0.,1.));
#710=IFCEXTRUDEDAREASOLID(#29,#708,#709,3700.);
#711=IFCSHAPEREPRESENTATION(#10,'Body','SweptSolid',(#710));
#712=IFCPRODUCTDEFINITIONSHAPE($,$,(#711));
#713=IFCBEAM('2AW7nSwkP3OxmIn77ruqxZ',$,'beam_x_57',$,$,#706,#712,'57');
#714=IFCCARTESIANPOINT((150.,5000.,9000.));
#715=IFCDIRECTION((1.,0.,0.));
#716=IFCDIRECTION((0.,1.,0.));
#717=IFCAXIS2PLACEMENT3D(#714,#715,#716);
#718=IFCLOCALPLACEMENT($,#717);
#719=IFCCARTESIANPOINT((0.,0.,0.));
#720=IFCAXIS2PLACEMENT3D(#719,$,$);
#721=IFCDIRECTION((0.,0.,1.));
#722=IFCEXTRUDEDAREASOLID(#29,#720,#721,3700.);
#723=IFCSHAPEREPRESENTATION(#10,'Body','SweptSolid',(#722));
#724=IFCPRODUCTDEFINITIONSHAPE($,$,(#723));
#725=IFCBEAM('3lcYW4WTrB$Be68gqsYTIR',$,'beam_x_58',$,$,#718,#724,'58');
#726=IFCCARTESIANPOINT((4150.,5000.,9000.));
#727=IFCDIRECTION((1.,0.,0.));
#728=IFCDIRECTION((0.,1.,0.));
#729=IFCAXIS2PLACEMENT3D(#726,#727,#728);
#730=IFCLOCALPLACEMENT($,#729);
#731=IFCCARTESIANPOINT((0.,0.,0.));
#732=IFCAXIS2PLACEMENT3D(#731,$,$);
#733=IFCDIRECTION((0.,0.,1.));
#734=IFCEXTRUDEDAREASOLID(#29,#732,#733,3700.);
#735=IFCSHAPEREPRESENTATION(#10,'Body','SweptSolid',(#734));
#736=IFCPRODUCTDEFINITIONSHAPE($,$,(#735));
#737=IFCBEAM('2NCsHWyRrF_Pf0tP8RS$T5',$,'beam_x_59',$,$,#730,#736,'59');
#738=IFCCARTESIANPOINT((8150.,5000.,9000.));
#739=IFCDIRECTION((1.,0.,0.));
#740=IFCDIRECTION((0.,1.,0.));
#741=IFCAXIS2PLACEMENT3D(#738,#739,#740);
#742=IFCLOCALPLACEMENT($,#741);
#743=IFCCARTESIANPOINT((0.,0.,0.));
#744=IFCAXIS2PLACEMENT3D(#743,$,$);
#745=IFCDIRECTION((0.,0.,1.));
#746=IFCEXTRUDEDAREASOLID(#29,#744,#745,3700.);
#747=IFCSHAPEREPRESENTATION(#10,'Body','SweptSolid',(#746));
#748=IFCPRODUCTDEFINITIONSHAPE($,$,(#747));
#749=IFCBEAM('1lzmChYL5DGAUfg5yrC39H',$,'beam_x_60',$,$,#742,#748,'60');
#750=IFCCARTESIANPOINT((150.,10000.,9000.));
#751=IFCDIRECTION((1.,0.,0.));
#752=IFCDIRECTION((0.,1.,0.));
#753=IFCAXIS2PLACEMENT3D(#750,#751,#752);
#754=IFCLOCALPLACEMENT($,#753);
#755=IFCCARTESIANPOINT((0.,0.,0.));
#756=IFCAXIS2PLACEMENT3D(#755,$,$);
#757=IFCDIRECTION((0.,0.,1.));
#758=IFCEXTRUDEDAREASOLID(#29,#756,#757,3700.);
#759=IFCSHAPEREPRESENTATION(#10,'Body','SweptSolid',(#758));
#760=IFCPRODUCTDEFINITIONSHAPE($,$,(#759));
#761=IFCBEAM('1gWKPWAwH6geVpwGJCC2oK',$,'beam_x_61',$,$,#754,#760,'61');
#762=IFCCARTESIANPOINT((4150.,10000.,9000.));
#763=IFCDIRECTION((1.,0.,0.));
#764=IFCDIRECTION((0.,1.,0.));
#765=IFCAXIS2PLACEMENT3D(#762,#763,#764);
#766=IFCLOCALPLACEMENT($,#765);
#767=IFCCARTESIANPOINT((0.,0.,0.));
#768=IFCAXIS2PLACEMENT3D(#767,$,$);
#769=IFCDIRECTION((0.,0.,1.));
#770=IFCEXTRUDEDAREASOLID(#29,#768,#769,3700.);
#771=IFCSHAPEREPRESENTATION(#10,'Body','SweptSolid',(#770));
#772=IFCPRODUCTDEFINITIONSHAPE($,$,(#771));
#773=IFCBEAM('2cYDi8u7HAhP3RiEz3e7MB',$,'beam_x_62',$,$,#766,#772,'62');
#774=IFCCARTESIANPOINT((8150.,10000.,9000.));
#775=IFCDIRECTION((1.,0.,0.));
#776=IFCDIRECTION((0.,1.,0.));
#777=IFCAXIS2PLACEMENT3D(#774,#775,#776);
#778=IFCLOCALPLACEMENT($,#777);
#779=IFCCARTESIANPOINT((0.,0.,0.));
#780=IFCAXIS2PLACEMENT3D(#779,$,$);
#781=IFCDIRECTION((0.,0.,1.));
#782=IFCEXTRUDEDAREASOLID(#29,#780,#781,3700.);
#783=IFCSHAPEREPRESENTATION(#10,'Body','SweptSolid',(#782));
#784=IFCPRODUCTDEFINITIONSHAPE($,$,(#783));
#785=IFCBEAM('0V8RZBG355hemW5gBt3yXD',$,'beam_x_63',$,$,#778,#784,'63');
#786=IFCCARTESIANPOINT((0.,150.,3000.));
#787=IFCDIRECTION((0.,1.,0.));
#788=IFCDIRECTION((-1.,0.,0.));
#789=IFCAXIS2PLACEMENT3D(#786,#787,#788);
#790=IFCLOCALPLACEMENT($,#789);
#791=IFCCARTESIANPOINT((0.,0.,0.));
#792=IFCAXIS2PLACEMENT3D(#791,$,$);
#793=IFCDIRECTION((0.,0.,1.));
#794=IFCEXTRUDEDAREASOLID(#29,#792,#793,4700.);
#795=IFCSHAPEREPRESENTATION(#10,'Body','SweptSolid',(#794));
#796=IFCPRODUCTDEFINITIONSHAPE($,$,(#795));
#797=IFCBEAM('0LfPWrkaD9l8Yi_n$A$EO1',$,'beam_y_64',$,$,#790,#796,'64');
#798=IFCCARTESIANPOINT((0.,5150.,3000.));
#799=IFCDIRECTION((0.,1.,0.));
#800=IFCDIRECTION((-1.,0.,0.));
#801=IFCAXIS2PLACEMENT3D(#798,#799,#800);
#802=IFCLOCALPLACEMENT($,#801);
#803=IFCCARTESIANPOINT((0.,0.,0.));
#804=IFCAXIS2PLACEMENT3D(#803,$,$);
#805=IFCDIRECTION((0.,0.,1.));
#806=IFCEXTRUDEDAREASOLID(#29,#804,#805,4700.);
#807=IFCSHAPEREPRESENTATION(#10,'Body','SweptSolid',(#806));
#808=IFCPRODUCTDEFINITIONSHAPE($,$,(#807));
#809=IFCBEAM('0oTpw8olPAEQ$XKAMGKkvt',$,'beam_y_65',$,$,#802,#808,'65');
#810=IFCCARTESIANPOINT((4000.,150.,3000.));
#811=IFCDIRECTION((0.,1.,0.));
#812=IFCDIRECTION((-1.,0.,0.));
#813=IFCAXIS2PLACEMENT3D(#810,#811,#812);
#814=IFCLOCALPLACEMENT($,#813);
#815=IFCCARTESIANPOINT((0.,0.,0.));
#816=IFCAXIS2PLACEMENT3D(#815,$,$);
#817=IFCDIRECTION((0.,0.,1.));
#818=IFCEXTRUDEDAREASOLID(#29,#816,#817,4700.);
#819=IFCSHAPEREPRESENTATION(#10,'Body','SweptSolid',(#818));
#820=IFCPRODUCTDEFINITIONSHAPE($,$,(#819));
#821=IFCBEAM('0W7c0k7xPFCQNnoDpH_sKP',$,'beam_y_66',$,$,#814,#820,'66');
#822=IFCCARTESIANPOINT((4000.,5150.,3000.));
#823=IFCDIRECTION((0.,1.,0.));
#824=IFCDIRECTION((-1.,0.,0.));
#825=IFCAXIS2PLACEMENT3D(#822,#823,#824);
#826=IFCLOCALPLACEMENT($,#825);
#827=IFCCARTESIANPOINT((0.,0.,0.));
#828=IFCAXIS2PLACEMENT3D(#827,$,$);
#829=IFCDIRECTION((0.,0.,1.));
#830=IFCEXTRUDEDAREASOLID(#29,#828,#829,4700.);
#831=IFCSHAPEREPRESENTATION(#10,'Body','SweptSolid',(#830));
#832=IFCPRODUCTDEFINITIONSHAPE($,$,(#831));
#833=IFCBEAM('0RKzh6VdnBP8LsPZ1XIJhB',$,'beam_y_67',$,$,#826,#832,'67');
#834=IFCCARTESIANPOINT((8000.,150.,3000.));
#835=IFCDIRECTION((0.,1.,0.));
#836=IFCDIRECTION((-1.,0.,0.));
#837=IFCAXIS2PLACEMENT3D(#834,#835,#836);
#838=IFCLOCALPLACEMENT($,#837);
#839=IFCCARTESIANPOINT((0.,0.,0.));
#840=IFCAXIS2PLACEMENT3D(#839,$,$);
#841=IFCDIRECTION((0.,0.,1.));
#842=IFCEXTRUDEDAREASOLID(#29,#840,#841,4700.);
#843=IFCSHAPEREPRESENTATION(#10,'Body','SweptSolid',(#842));
#844=IFCPRODUCTDEFINITIONSHAPE($,$,(#843));
#845=IFCBEAM('3txyVkWs95yhVd6UlWnI0_',$,'beam_y_68',$,$,#838,#844,'68');
#846=IFCCARTESIANPOINT((8000.,5150.,3000.));
#847=IFCDIRECTION((0.,1.,0.));
#848=IFCDIRECTION((-1.,0.,0.));
#849=IFCAXIS2PLACEMENT3D(#846,#847,#848);
#850=IFCLOCALPLACEMENT($,#849);
#851=IFCCARTESIANPOINT((0.,0.,0.));
#852=IFCAXIS2PLACEMENT3D(#851,$,$);
#853=IFCDIRECTION((0.,0.,1.));
#854=IFCEXTRUDEDAREASOLID(#29,#852,#853,4700.);
#855=IFCSHAPEREPRESENTATION(#10,'Body','SweptSolid',(#854));
#856=IFCPRODUCTDEFINITIONSHAPE($,$,(#855));
#857=IFCBEAM('1jaFOu_XnBzwIeIIAnewox',$,'beam_y_69',$,$,#850,#856,'69');
#858=IFCCARTESIANPOINT((12000.,150.,3000.));
#859=IFCDIRECTION((0.,1.,0.));
#860=IFCDIRECTION((-1.,0.,0.));
#861=IFCAXIS2PLACEMENT3D(#858,#859,#860);
#862=IFCLOCALPLACEMENT($,#861);
#863=IFCCARTESIANPOINT((0.,0.,0.));
#864=IFCAXIS2PLACEMENT3D(#863,$,$);
#865=IFCDIRECTION((0.,0.,1.));
#866=IFCEXTRUDEDAREASOLID(#29,#864,#865,4700.);
#867=IFCSHAPEREPRESENTATION(#10,'Body','SweptSolid',(#866));
#868=IFCPRODUCTDEFINITIONSHAPE($,$,(#867));
#869=IFCBEAM('1lDRR$7G1Dv8qm9$ciS2NC',$,'beam_y_70',$,$,#862,#868,'70');
#870=IFCCARTESIANPOINT((12000.,5150.,3000.));
#871=IFCDIRECTION((0.,1.,0.));
#872=IFCDIRECTION((-1.,0.,0.));
#873=IFCAXIS2PLACEMENT3D(#870,#871,#872);
#874=IFCLOCALPLACEMENT($,#873);
#875=IFCCARTESIANPOINT((0.,0.,0.));
#876=IFCAXIS2PLACEMENT3D(#875,$,$);
#877=IFCDIRECTION((0.,0.,1.));
#878=IFCEXTRUDEDAREASOLID(#29,#876,#877,4700.);
#879=IFCSHAPEREPRESENTATION(#10,'Body','SweptSolid',(#878));
#880=IFCPRODUCTDEFINITIONSHAPE($,$,(#879));
#881=IFCBEAM('0Hx04JRNzAkwWfE5jvwDM2',$,'beam_y_71',$,$,#874,#880,'71');
#882=IFCCARTESIANPOINT((0.,150.,6000.));
#883=IFCDIRECTION((0.,1.,0.));
#884=IFCDIRECTION((-1.,0.,0.));
#885=IFCAXIS2PLACEMENT3D(#882,#883,#884);
#886=IFCLOCALPLACEMENT($,#885);
#887=IFCCARTESIANPOINT((0.,0.,0.));
#888=IFCAXIS2PLACEMENT3D(#887,$,$);
#889=IFCDIRECTION((0.,0.,1.));
#890=IFCEXTRUDEDAREASOLID(#29,#888,#889,4700.);
#891=IFCSHAPEREPRESENTATION(#10,'Body','SweptSolid',(#890));
#892=IFCPRODUCTDEFINITIONSHAPE($,$,(#891));
#893=IFCBEAM('2b4T4_epT8EulL0I2_ohI4',$,'beam_y_72',$,$,#886,#892,'72');
#894=IFCCARTESIANPOINT((0.,5150.,6000.));
#895=IFCDIRECTION((0.,1.,0.));
#896=IFCDIRECTION((-1.,0.,0.));
#897=IFCAXIS2PLACEMENT3D(#894,#895,#896);
#898=IFCLOCALPLACEMENT($,#897);
#899=IFCCARTESIANPOINT((0.,0.,0.));
#900=IFCAXIS2PLACEMENT3D(#899,$,$);
#901=IFCDIRECTION((0.,0.,1.));
#902=IFCEXTRUDEDAREASOLID(#29,#900,#901,4700.);
#903=IFCSHAPEREPRESENTATION(#10,'Body','SweptSolid',(#902));
#904=IFCPRODUCTDEFINITIONSHAPE($,$,(#903));
#905=IFCBEAM('3C31e1$rXF_94j405lm2gw',$,'beam_y_73',$,$,#898,#904,'73');
#906=IFCCARTESIANPOINT((4000.,150.,6000.));
#907=IFCDIRECTION((0.,1.,0.));
#908=IFCDIRECTION((-1.,0.,0.));
#909=IFCAXIS2PLACEMENT3D(#906,#907,#908);
#910=IFCLOCALPLACEMENT($,#909);
#911=IFCCARTESIANPOINT((0.,0.,0.));
#912=IFCAXIS2PLACEMENT3D(#911,$,$);
#913=IFCDIRECTION((0.,0.,1.));
#914=IFCEXTRUDEDAREASOLID(#29,#912,#913,4700.);
#915=IFCSHAPEREPRESENTATION(#10,'Body','SweptSolid',(#914));
#916=IFCPRODUCTDEFINITIONSHAPE($,$,(#915));
#917=IFCBEAM('1itS9rGtn2zhnm_okpLQt2',$,'beam_y_74',$,$,#910,#916,'74');
#918=IFCCARTESIANPOINT((4000.,5150.,6000.));
#919=IFCDIRECTION((0.,1.,0.));
#920=IFCDIRECTION((-1.,0.,0.));
#921=IFCAXIS2PLACEMENT3D(#918,#919,#920);
#922=IFCLOCALPLACEMENT($,#921);
#923=IFCCARTESIANPOINT((0.,0.,0.));
#924=IFCAXIS2PLACEMENT3D(#923,$,$);
#925=IFCDIRECTION((0.,0.,1.));
#926=IFCEXTRUDEDAREASOLID(#29,#924,#925,4700.);
#927=IFCSHAPEREPRESENTATION(#10,'Body','SweptSolid',(#926));
#928=IFCPRODUCTDEFINITIONSHAPE($,$,(#927));
#929=IFCBEAM('1vMh6GZ6T7JR88YtMsF2dx',$,'beam_y_75',$,$,#922,#928,'75');
#930=IFCCARTESIANPOINT((8000.,150.,6000.));
#931=IFCDIRECTION((0.,1.,0.));
#932=IFCDIRECTION((-1.,0.,0.));
#933=IFCAXIS2PLACEMENT3D(#930,#931,#932);
#934=IFCLOCALPLACEMENT($,#933);
#935=IFCCARTESIANPOINT((0.,0.,0.));
#936=IFCAXIS2PLACEMENT3D(#935,$,$);
#937=IFCDIRECTION((0.,0.,1.));
#938=IFCEXTRUDEDAREASOLID(#29,#936,#937,4700.);
#939=IFCSHAPEREPRESENTATION(#10,'Body','SweptSolid',(#938));
#940=IFCPRODUCTDEFINITIONSHAPE($,$,(#939));
#941=IFCBEAM('3PUo5QMP1Dq9rAUToymbBz',$,'beam_y_76',$,$,#934,#940,'76');
#942=IFCCARTESIANPOINT((8000.,5150.,6000.));
#943=IFCDIRECTION((0.,1.,0.));
#944=IFCDIRECTION((-1.,0.,0.));
#945=IFCAXIS2PLACEMENT3D(#942,#943,#944);
#946=IFCLOCALPLACEMENT($,#945);
#947=IFCCARTESIANPOINT((0.,0.,0.));
#948=IFCAXIS2PLACEMENT3D(#947,$,$);
#949=IFCDIRECTION((0.,0.,1.));
#950=IFCEXTRUDEDAREASOLID(#29,#948,#949,4700.);
#951=IFCSHAPEREPRESENTATION(#10,'Body','SweptSolid',(#950));
#952=IFCPRODUCTDEFINITIONSHAPE($,$,(#951));
#953=IFCBEAM('38dLJ4CmH318YQmf0ZqAvB',$,'beam_y_77',$,$,#946,#952,'77');
#954=IFCCARTESIANPOINT((12000.,150.,6000.));
#955=IFCDIRECTION((0.,1.,0.));
#956=IFCDIRECTION((-1.,0.,0.));
#957=IFCAXIS2PLACEMENT3D(#954,#955,#956);
#958=IFCLOCALPLACEMENT($,#957);
#959=IFCCARTESIANPOINT((0.,0.,0.));
#960=IFCAXIS2PLACEMENT3D(#959,$,$);
#961=IFCDIRECTION((0.,0.,1.));
#962=IFCEXTRUDEDAREASOLID(#29,#960,#961,4700.);
#963=IFCSHAPEREPRESENTATION(#10,'Body','SweptSolid',(#962));
#964=IFCPRODUCTDEFINITIONSHAPE($,$,(#963));
#965=IFCBEAM('39RDom07nEphsS7WrUy95h',$,'beam_y_78',$,$,#958,#964,'78');
#966=IFCCARTESIANPOINT((12000.,5150.,6000.));
#967=IFCDIRECTION((0.,1.,0.));
#968=IFCDIRECTION((-1.,0.,0.));
#969=IFCAXIS2PLACEMENT3D(#966,#967,#968);
#970=IFCLOCALPLACEMENT($,#969);
#971=IFCCARTESIANPOINT((0.,0.,0.));
#972=IFCAXIS2PLACEMENT3D(#971,$,$);
#973=IFCDIRECTION((0.,0.,1.));
#974=IFCEXTRUDEDAREASOLID(#29,#972,#973,4700.);
#975=IFCSHAPEREPRESENTATION(#10,'Body','SweptSolid',(#974));
#976=IFCPRODUCTDEFINITIONSHAPE($,$,(#975));
#977=IFCBEAM('0goWLZXHn5HRE7orVl0dqi',$,'beam_y_79',$,$,#970,#976,'79');
#978=IFCCARTESIANPOINT((0.,150.,9000.));
#979=IFCDIRECTION((0.,1.,0.));
#980=IFCDIRECTION((-1.,0.,0.));
#981=IFCAXIS2PLACEMENT3D(#978,#979,#980);
#982=IFCLOCALPLACEMENT($,#981);
#983=IFCCARTESIANPOINT((0.,0.,0.));
#984=IFCAXIS2PLACEMENT3D(#983,$,$);
#985=IFCDIRECTION((0.,0.,1.));
#986=IFCEXTRUDEDAREASOLID(#29,#984,#985,4700.);
#987=IFCSHAPEREPRESENTATION(#10,'Body','SweptSolid',(#986));
#988=IFCPRODUCTDEFINITIONSHAPE($,$,(#987));
#989=IFCBEAM('15$ONC5mT4eQBRBPOrcDBy',$,'beam_y_80',$,$,#982,#988,'80');
#990=IFCCARTESIANPOINT((0.,5150.,9000.));
#991=IFCDIRECTION((0.,1.,0.));
#992=IFCDIRECTION((-1.,0.,0.));
#993=IFCAXIS2PLACEMENT3D(#990,#991,#992);
#994=IFCLOCALPLACEMENT($,#993);
#995=IFCCARTESIANPOINT((0.,0.,0.));
#996=IFCAXIS2PLACEMENT3D(#995,$,$);
#997=IFCDIRECTION((0.,0.,1.));
#998=IFCEXTRUDEDAREASOLID(#29,#996,#997,4700.);
#999=IFCSHAPEREPRESENTATION(#10,'Body','SweptSolid',(#998));
#1000=IFCPRODUCTDEFINITIONSHAPE($,$,(#999));
#1001=IFCBEAM('3l3P4PdUfEvh0AeZcYZIVw',$,'beam_y_81',$,$,#994,#1000,'81');
#1002=IFCCARTESIANPOINT((4000.,150.,9000.));
#1003=IFCDIRECTION((0.,1.,0.));
#1004=IFCDIRECTION((-1.,0.,0.));
#1005=IFCAXIS2PLACEMENT3D(#1002,#1003,#1004);
#1006=IFCLOCALPLACEMENT($,#1005);
#1007=IFCCARTESIANPOINT((0.,0.,0.));
#1008=IFCAXIS2PLACEMENT3D(#1007,$,$);
#1009=IFCDIRECTION((0.,0.,1.));
#1010=IFCEXTRUDEDAREASOLID(#29,#1008,#1009,4700.);
#1011=IFCSHAPEREPRESENTATION(#10,'Body','SweptSolid',(#1010));
#1012=IFCPRODUCTDEFINITIONSHAPE($,$,(#1011));
#1013=IFCBEAM('0JDkCv5jn7gR2BLNhEKo_i',$,'beam_y_82',$,$,#1006,#1012,'82');
#1014=IFCCARTESIANPOINT((4000.,5150.,9000.));
#1015=IFCDIRECTION((0.,1.,0.));
#1016=IFCDIRECTION((-1.,0.,0.));
#1017=IFCAXIS2PLACEMENT3D(#1014,#1015,#1016);
#1018=IFCLOCALPLACEMENT($,#1017);
#1019=IFCCARTESIANPOINT((0.,0.,0.));
#1020=IFCAXIS2PLACEMENT3D(#1019,$,$);
#1021=IFCDIRECTION((0.,0.,1.));
#1022=IFCEXTRUDEDAREASOLID(#29,#1020,#1021,4700.);
#1023=IFCSHAPEREPRESENTATION(#10,'Body','SweptSolid',(#1022));
#1024=IFCPRODUCTDEFINITIONSHAPE($,$,(#1023));
#1025=IFCBEAM('304xOm3rX7vxeWtZjHbjn6',$,'beam_y_83',$,$,#1018,#1024,'83');
#1026=IFCCARTESIANPOINT((8000.,150.,9000.));
#1027=IFCDIRECTION((0.,1.,0.));
#1028=IFCDIRECTION((-1.,0.,0.));
#1029=IFCAXIS2PLACEMENT3D(#1026,#1027,#1028);
#1030=IFCLOCALPLACEMENT($,#1029);
#1031=IFCCARTESIANPOINT((0.,0.,0.));
#1032=IFCAXIS2PLACEMENT3D(#1031,$,$);
#1033=IFCDIRECTION((0.,0.,1.));
#1034=IFCEXTRUDEDAREASOLID(#29,#1032,#1033,4700.);
#1035=IFCSHAPEREPRESENTATION(#10,'Body','SweptSolid',(#1034));
#1036=IFCPRODUCTDEFINITIONSHAPE($,$,(#1035));
#1037=IFCBEAM('02keA3mfPD7xNX_2NXkB5K',$,'beam_y_84',$,$,#1030,#1036,'84');
#1038=IFCCARTESIANPOINT((8000.,5150.,9000.));
#1039=IFCDIRECTION((0.,1.,0.));
#1040=IFCDIRECTION((-1.,0.,0.));
#1041=IFCAXIS2PLACEMENT3D(#1038,#1039,#1040);
#1042=IFCLOCALPLACEMENT($,#1041);
#1043=IFCCARTESIANPOINT((0.,0.,0.));
#1044=IFCAXIS2PLACEMENT3D(#1043,$,$);
#1045=IFCDIRECTION((0.,0.,1.));
#1046=IFCEXTRUDEDAREASOLID(#29,#1044,#1045,4700.);
#1047=IFCSHAPEREPRESENTATION(#10,'Body','SweptSolid',(#1046));
#1048=IFCPRODUCTDEFINITIONSHAPE($,$,(#1047));
#1049=IFCBEAM('0MU9sgVLDFWh4x8iOPTSN_',$,'beam_y_85',$,$,#1042,#1048,'85');
#1050=IFCCARTESIANPOINT((12000.,150.,9000.));
#1051=IFCDIRECTION((0.,1.,0.));
#1052=IFCDIRECTION((-1.,0.,0.));
#1053=IFCAXIS2PLACEMENT3D(#1050,#1051,#1052);
#1054=IFCLOCALPLACEMENT($,#1053);
#1055=IFCCARTESIANPOINT((0.,0.,0.));
#1056=IFCAXIS2PLACEMENT3D(#1055,$,$);
#1057=IFCDIRECTION((0.,0.,1.));
#1058=IFCEXTRUDEDAREASOLID(#29,#1056,#1057,4700.);
#1059=IFCSHAPEREPRESENTATION(#10,'Body','SweptSolid',(#1058));
#1060=IFCPRODUCTDEFINITIONSHAPE($,$,(#1059));
#1061=IFCBEAM('2v3$OConXAOhJObf_veajs',$,'beam_y_86',$,$,#1054,#1060,'86');
#1062=IFCCARTESIANPOINT((12000.,5150.,9000.));
#1063=IFCDIRECTION((0.,1.,0.));
#1064=IFCDIRECTION((-1.,0.,0.));
#1065=IFCAXIS2PLACEMENT3D(#1062,#1063,#1064);
#1066=IFCLOCALPLACEMENT($,#1065);
#1067=IFCCARTESIANPOINT((0.,0.,0.));
#1068=IFCAXIS2PLACEMENT3D(#1067,$,$);
#1069=IFCDIRECTION((0.,0.,1.));
#1070=IFCEXTRUDEDAREASOLID(#29,#1068,#1069,4700.);
#1071=IFCSHAPEREPRESENTATION(#10,'Body','SweptSolid',(#1070));
#1072=IFCPRODUCTDEFINITIONSHAPE($,$,(#1071));
#1073=IFCBEAM('3$gtilm8TA0Pz2KI9HVMYu',$,'beam_y_87',$,$,#1066,#1072,'87');
#1074=IFCRELCONTAINEDINSPATIALSTRUCTURE('0LJ6kYeQX5qg6AHYGDp2aL',$,$,$,(#41,#53,#65,#77,#89,#101,#113,#125,#137,#149,#161,#173),#16);
#1075=IFCRELCONTAINEDINSPATIALSTRUCTURE('1JobyciJjFjQcGsv2jgQHg',$,$,$,(#473,#485,#497,#509,#521,#533,#545,#557,#569,#797,#809,#821,#833,#845,#857,#869,#881),#17);
#1076=IFCRELCONTAINEDINSPATIALSTRUCTURE('0D4wubRnT6GxiODJSZ6fGw',$,$,$,(#185,#197,#209,#221,#233,#245,#257,#269,#281,#293,#305,#317),#17);
#1077=IFCRELCONTAINEDINSPATIALSTRUCTURE('1VeRPvq$16e8SRkif3UN2V',$,$,$,(#581,#593,#605,#617,#629,#641,#653,#665,#677,#893,#905,#917,#929,#941,#953,#965,#977),#18);
#1078=IFCRELCONTAINEDINSPATIALSTRUCTURE('27PJik_Iz94xpivsey0wC$',$,$,$,(#329,#341,#353,#365,#377,#389,#401,#413,#425,#437,#449,#461),#18);
#1079=IFCRELCONTAINEDINSPATIALSTRUCTURE('1PjRBLvrP5f9KwsZ0ZHqG4',$,$,$,(#689,#701,#713,#725,#737,#749,#761,#773,#785,#989,#1001,#1013,#1025,#1037,#1049,#1061,#1073),#19);
#1080=IFCRELASSOCIATESMATERIAL('1czc5YEXj5hQF05J7VSXa2',$,$,$,(#41,#53,#65,#77,#89,#101,#113,#125,#137,#149,#161,#173,#185,#197,#209,#221,#233,#245,#257,#269,#281,#293,#305,#317,#329,#341,#353,#365,#377,#389,#401,#413,#425,#437,#449,#461,#473,#485,#497,#509,#521,#533,#545,#557,#569,#581,#593,#605,#617,#629,#641,#653,#665,#677,#689,#701,#713,#725,#737,#749,#761,#773,#785,#797,#809,#821,#833,#845,#857,#869,#881,#893,#905,#917,#929,#941,#953,#965,#977,#989,#1001,#1013,#1025,#1037,#1049,#1061,#1073),#21);
ENDSEC;
END-ISO-10303-21;
